PathFileType	4	(X/Y/Z)	walk-thru1-5-TP.trc
DataRate	CameraRate	NumFrames	NumMarkers	Units	OrigDataRate	OrigDataStartFrame	OrigNumFrames
120.00	120.00	       4	60	mm	120.00	456	       521
Frame#	Time	Top.Head			Front.Head			Rear.Head			Jaw			C7			R.Clavicle			L.Clavicle			R.Shoulder			L.Shoulder			R.Scapula			L.Scapula			R.Scap.Inf			R.Biceps.Lateral			R.Elbow			R.Elbow.Medial			R.Forearm			R.Ulna			R.Radius			R.Wrist			R.Thumb.M1			R.Thumb.M2			R.Thumb.M3			R.Finger3.M1			R.Finger3.M2			R.Finger3.M3			L.Biceps.Lateral			L.Elbow			L.Elbow.Medial			L.Forearm			L.Ulna			L.Radius			L.Wrist			L.Thumb.M1			L.Thumb.M2			L.Thumb.M3			L.Finger3.M1			L.Finger3.M2			L.Finger3.M3			V.Sacral			R.ASIS			L.ASIS			R.Thigh			R.Thigh.Front			R.Knee			R.Knee.Medial			R.Shank			R.Ankle			R.Ankle.Medial			R.Heel			R.Toe			R.MedFoot			L.Thigh			L.Knee			L.Knee.Medial			L.Shank			L.Ankle			L.Ankle.Medial			L.Heel			L.Toe			L.MedFoot			V_mid_ASIS			V_R_Knee_JC			V_L_Knee_JC			V_R_Elbow_JC			V_L_Elbow_JC			V_R_Ankle_JC			V_L_Ankle_JC			V_R_Wrist_JC			V_L_Wrist_JC			V_R_ScaTrpz_1stMC_JC			V_R_1stMC_1stPP_JC			V_R_1stPP_1stDP_JC			V_R_LunCap_3rdMC_JC			V_R_3rdMC_3rdPP_JC			V_R_3rdPP_3rdMP_JC			V_R_3rdMP_3rdDP_JC			V_L_ScaTrpz_1stMC_JC			V_L_1stMC_1stPP_JC			V_L_1stPP_1stDP_JC			V_L_LunCap_3rdMC_JC			V_L_3rdMC_3rdPP_JC			V_L_3rdPP_3rdMP_JC			V_L_3rdMP_3rdPP_JC			V_ROOT_JC			V_R_Hip_JC			V_L_Hip_JC			V_R_GlenHum_JC			V_L_GlenHum_JC			V_ForeHead_Ctr			V_Vertex			V_Sagit_Lambdoid_Suture			V_R_FrontoTemp			V_L_FrontoTemporal			V_R_ParietalOccip			V_L_ParietalOcciptal			V_R_Temporal			V_L_Temporal			V_mid_FrontRearHead			V_mid_RLGlenHumCtrs			V_C7_vert			V_C1_vert			V_Mid_Hip			
		X1	Y1	Z1	X2	Y2	Z2	X3	Y3	Z3	X4	Y4	Z4	X5	Y5	Z5	X6	Y6	Z6	X7	Y7	Z7	X8	Y8	Z8	X9	Y9	Z9	X10	Y10	Z10	X11	Y11	Z11	X12	Y12	Z12	X13	Y13	Z13	X14	Y14	Z14	X15	Y15	Z15	X16	Y16	Z16	X17	Y17	Z17	X18	Y18	Z18	X19	Y19	Z19	X20	Y20	Z20	X21	Y21	Z21	X22	Y22	Z22	X23	Y23	Z23	X24	Y24	Z24	X25	Y25	Z25	X26	Y26	Z26	X27	Y27	Z27	X28	Y28	Z28	X29	Y29	Z29	X30	Y30	Z30	X31	Y31	Z31	X32	Y32	Z32	X33	Y33	Z33	X34	Y34	Z34	X35	Y35	Z35	X36	Y36	Z36	X37	Y37	Z37	X38	Y38	Z38	X39	Y39	Z39	X40	Y40	Z40	X41	Y41	Z41	X42	Y42	Z42	X43	Y43	Z43	X44	Y44	Z44	X45	Y45	Z45	X46	Y46	Z46	X47	Y47	Z47	X48	Y48	Z48	X49	Y49	Z49	X50	Y50	Z50	X51	Y51	Z51	X52	Y52	Z52	X53	Y53	Z53	X54	Y54	Z54	X55	Y55	Z55	X56	Y56	Z56	X57	Y57	Z57	X58	Y58	Z58	X59	Y59	Z59	X60	Y60	Z60	

456	3.792	-953.44177	88.20992	1796.61646	-1050.51978	73.62440	1682.06152	-824.72357	87.98544	1700.15332	-1002.75061	75.46776	1516.73938	-810.87152	85.09496	1567.02112	-912.29968	192.51369	1466.30798	-911.51465	-34.54996	1474.08301	-876.89063	282.90045	1461.18323	-842.43256	-128.17915	1484.71033	-762.78271	172.75171	1479.34351	-755.77966	1.08626	1486.27026	-713.56543	183.18384	1392.48340	-835.88501	342.10001	1280.95032	-803.52539	357.58743	1126.55457	-777.21216	270.34094	1111.30188	-887.13409	299.38705	1015.30853	-859.84979	340.98120	912.91956	-916.50830	276.91479	885.67151	-915.86029	314.40366	836.25067	-927.53375	269.61331	851.86639	-960.84515	235.65683	807.24713	-996.99976	230.90636	778.56128	-959.85010	314.87659	767.47186	-971.70172	274.25079	715.71570	-954.99286	229.02608	693.32959	-808.09192	-195.74323	1341.42053	-778.53540	-243.28941	1168.38977	-731.95538	-179.61867	1153.32336	-836.99585	-219.53331	1059.49011	-779.70422	-246.07625	973.98529	-843.82581	-192.51427	917.10974	-835.20905	-228.16064	861.52502	-847.52441	-181.86917	851.38007	-838.07050	-147.59746	800.27106	-836.98480	-155.41481	739.51563	-842.23907	-244.11523	786.32489	-824.29742	-228.74162	729.99207	-795.95923	-211.05771	688.58215	-713.42676	67.84659	1086.49524	-818.04919	252.37575	1029.45911	-809.88550	-121.71272	1028.62183	-893.88757	197.88095	624.76758	-978.07379	111.54218	564.87573	-926.75922	165.03308	500.25510	-921.96613	51.86123	505.84009	-934.22040	113.58723	320.04272	-826.80072	129.11980	64.97145	-865.49994	34.93024	92.15335	-772.23132	66.47950	42.37327	-1013.26135	97.05270	42.63195	-943.35205	54.35040	67.69270	-895.41309	-137.14745	648.50531	-922.45190	-130.21797	504.41861	-940.02936	-11.49116	496.24545	-820.03784	-74.66331	333.60159	-594.32520	-85.12003	199.24039	-654.47498	0.94048	205.92343	-553.54108	-20.29914	222.44678	-709.20117	-46.91123	67.41915	-690.30396	-16.53342	115.01670																																																																																																																															
457	3.800	-958.61743	86.95811	1796.28931	-1055.12305	73.69095	1681.99500	-830.80298	89.48959	1701.12842	-1007.95972	74.75878	1516.72253	-814.11017	82.95007	1566.71375	-917.79828	192.90906	1467.25183	-917.18414	-33.73589	1474.27246	-882.84338	282.63412	1460.93506	-846.37268	-127.74035	1485.60461	-768.70294	173.04199	1479.13953	-759.61926	1.98224	1487.07886	-719.55914	183.75977	1392.60510	-842.57965	341.20596	1281.54956	-810.59833	359.60876	1127.62427	-786.65790	269.08194	1112.15735	-894.59485	300.85861	1015.08887	-867.30652	343.64929	913.75690	-924.10266	276.58481	886.48407	-924.14172	314.90509	836.84406	-934.87805	269.26706	852.90320	-969.04034	235.70554	807.51245	-1004.94092	229.77925	780.29431	-969.93225	315.75610	769.06915	-979.97131	273.67664	716.98584	-964.70532	228.71524	694.65338	-811.85938	-195.53175	1341.37683	-782.84650	-243.28830	1169.41077	-736.32703	-178.37187	1154.49951	-841.38025	-219.22951	1059.84900	-784.54187	-245.14806	974.46887	-847.69250	-191.98048	917.55975	-837.13678	-228.00635	861.71014	-850.68640	-180.38493	850.63745	-840.49597	-148.23529	800.05499	-840.19592	-156.13785	739.49615	-845.91418	-244.50977	786.53839	-827.63513	-226.44635	730.96606	-800.06934	-211.42305	689.66125	-718.60406	67.60670	1087.30872	-816.00354	253.99191	1030.08984	-817.33527	-122.08861	1030.08459	-896.96820	196.90979	624.80121	-981.46362	110.72918	564.03607	-928.21521	164.91176	499.82721	-924.45374	52.40836	505.35364	-934.48077	113.72408	319.17163	-826.86865	128.14896	65.25646	-865.64368	34.35087	92.08833	-772.28961	66.22776	42.57588	-1013.26135	97.05270	42.63195	-943.57251	54.14693	67.57986	-905.33380	-136.04788	650.14258	-933.30151	-129.38643	506.34747	-949.55988	-9.91643	497.60034	-831.64307	-74.10007	334.11179	-608.97412	-88.20384	197.82248	-666.52142	0.57577	203.89424	-565.88818	-21.13984	219.22894	-726.93994	-50.86160	67.74783	-705.01117	-17.77007	113.72051																																																																																																																															
458	3.808	-964.28790	87.15099	1796.51758	-1060.96094	74.27153	1681.79150	-835.41095	89.90385	1703.06970	-1012.71259	76.04430	1516.99585	-822.15027	83.94000	1565.94788	-922.58636	193.36578	1467.62219	-921.34393	-33.83193	1474.77502	-887.11005	282.84607	1462.49231	-850.92932	-127.44218	1486.45435	-772.21228	173.03546	1479.78369	-764.94562	2.93524	1488.16370	-724.51477	185.39807	1393.74097	-849.11597	342.90009	1281.88867	-817.36334	359.29672	1128.19092	-791.23505	272.76831	1111.83655	-901.97522	300.52826	1016.42157	-875.13940	343.47934	914.01178	-931.79083	277.47937	886.68353	-931.87701	315.00269	838.15015	-942.81641	269.23611	852.39459	-975.40204	235.52316	807.85242	-1013.00647	229.74352	780.79248	-977.80225	314.93808	770.14624	-989.10724	274.84866	717.38104	-971.93384	228.54218	695.23596	-816.26404	-194.85237	1341.73010	-787.56219	-241.96851	1170.58386	-739.83313	-179.95096	1154.51257	-845.94330	-218.56120	1060.79431	-788.91870	-244.87900	974.88403	-851.90021	-192.05957	918.51477	-841.39807	-227.16518	862.00470	-856.12683	-179.94603	851.85052	-845.85144	-148.30270	801.40295	-843.85925	-154.32507	739.60199	-849.84778	-244.96326	786.51093	-831.32520	-227.52797	730.98065	-803.55951	-211.43369	689.98450	-723.90796	68.18892	1088.07678	-821.19971	254.47720	1029.95215	-821.60297	-120.77937	1029.10815	-898.62067	196.88594	624.04517	-983.44360	110.67025	563.75024	-930.61383	164.59091	499.34512	-926.81146	51.68314	504.85449	-934.52295	113.72072	318.61508	-827.08423	128.11874	65.37360	-865.78577	34.25584	92.11110	-768.43555	67.18028	42.33403	-1013.26135	97.05270	42.63195	-943.40491	54.66951	67.47849	-915.03223	-135.87175	651.45514	-943.68866	-127.66579	507.62604	-958.17926	-9.31195	498.20395	-844.05353	-74.95232	334.76163	-622.58313	-87.86736	195.05432	-680.34845	-0.05818	202.45660	-579.39270	-22.32231	215.19106	-747.47723	-51.93711	68.74429	-721.92285	-20.13960	113.85969																																																																																																																															
459	3.817	-969.75964	86.21887	1797.22229	-1065.69556	72.98759	1681.86121	-840.84448	87.20050	1702.58044	-1017.64221	75.20521	1517.23645	-826.90027	86.47688	1567.59424	-927.40387	192.76297	1468.44238	-926.62164	-33.84486	1475.44788	-893.05536	282.29913	1463.19177	-855.10712	-127.30093	1486.08789	-779.77924	172.21953	1479.49304	-770.31592	1.73335	1487.88257	-729.44812	182.90707	1393.68860	-855.45966	343.30267	1283.18433	-824.15723	360.48550	1128.24451	-799.80969	270.75610	1112.66370	-908.25562	300.05515	1017.23419	-881.80939	344.40305	914.98785	-938.88025	278.01212	887.65881	-939.77716	316.30441	838.84882	-949.75775	269.64175	853.70135	-983.83997	235.05388	808.56812	-1021.54028	229.99268	781.48285	-984.32416	316.39856	771.10144	-997.45276	274.17694	718.99127	-979.72211	230.33504	695.49255	-820.67938	-194.21455	1343.32056	-791.86310	-241.95480	1170.77600	-745.24115	-176.91286	1154.92993	-849.50598	-218.87044	1060.46118	-792.08038	-244.42976	975.61444	-856.82288	-192.70195	919.28162	-846.40149	-228.50003	862.16602	-861.00201	-181.49661	852.26959	-850.54468	-148.10730	801.29773	-847.87805	-154.01788	739.58240	-853.55194	-244.96855	787.51825	-834.72729	-227.09796	730.94379	-807.68500	-210.07336	690.11731	-729.36401	68.58194	1088.10669	-827.43524	254.03738	1029.81885	-827.84491	-121.05300	1029.25720	-902.51843	196.57867	624.38068	-985.53986	109.67365	562.83942	-932.24158	163.97133	499.12741	-928.50696	51.41456	504.76678	-935.15887	113.86480	318.70181	-827.43225	127.79387	65.79059	-866.36401	33.55131	91.70988	-772.78870	65.23692	41.37418	-1013.04236	96.90984	42.19949	-943.50385	54.33458	67.78566	-924.66113	-133.67674	653.76801	-953.81012	-125.92752	508.99225	-967.85529	-7.11200	500.31754	-857.14569	-74.99458	334.87384	-636.89282	-90.23186	192.34862	-694.56598	-0.62002	198.93959	-593.09607	-23.41482	210.25526	-761.37982	-51.19006	66.96462	-736.49847	-18.97336	110.94597																																																																																																																															
